<?xml version="1.0" standalone="no"?>
<!DOCTYPE svg PUBLIC "-//W3C//DTD SVG 20010904//EN"
 "http://www.w3.org/TR/2001/REC-SVG-20010904/DTD/svg10.dtd">
<svg version="1.0" xmlns="http://www.w3.org/2000/svg"
 width="3333.000000pt" height="3333.000000pt" viewBox="0 0 3333.000000 3333.000000"
 preserveAspectRatio="xMidYMid meet">
<metadata>
Created by potrace 1.14, written by Peter Selinger 2001-2017
</metadata>
<g transform="translate(0.000000,3333.000000) scale(0.100000,-0.100000)"
fill="#000000" stroke="none">
<path d="M21277 28347 c-3 -7 -823 -1992 -1822 -4412 -1000 -2420 -1820 -4410
-1823 -4422 -2 -14 165 -485 444 -1243 l448 -1220 48 0 c26 0 48 2 48 5 0 3
619 2536 1375 5630 756 3093 1375 5629 1375 5634 0 15 -88 41 -93 28z"/>
<path d="M13811 28151 c-9 -6 -12 -19 -8 -37 5 -23 2507 -10380 2716 -11245
52 -214 76 -282 116 -335 13 -17 79 -75 147 -127 141 -110 306 -260 401 -364
480 -527 903 -1412 1292 -2708 211 -703 356 -1279 686 -2725 94 -410 208 -902
254 -1095 46 -192 89 -378 95 -412 6 -34 15 -189 20 -345 11 -336 28 -461 102
-718 95 -333 297 -708 532 -986 415 -493 994 -817 1606 -900 140 -18 411 -18
552 2 263 36 518 122 732 248 606 357 967 990 993 1741 14 414 -78 829 -272
1220 -145 293 -313 524 -551 755 -296 287 -605 476 -984 600 -158 52 -270 78
-485 110 -217 33 -307 71 -496 211 -98 73 -275 242 -364 350 -205 244 -413
591 -610 1019 -164 355 -393 894 -1659 3920 l-1313 3135 -1738 4348 c-957
2391 -1741 4347 -1744 4347 -4 0 -12 -4 -20 -9z m3730 -10561 c194 -36 353
-205 382 -406 43 -298 -208 -564 -511 -542 -235 18 -422 205 -440 440 -23 314
258 566 569 508z m4324 -7445 c667 -114 1253 -647 1458 -1326 60 -196 72 -287
71 -529 0 -185 -3 -230 -23 -320 -103 -480 -369 -827 -785 -1025 -212 -102
-411 -141 -666 -132 -243 9 -431 56 -657 162 -459 217 -828 637 -992 1130
-329 987 213 1939 1169 2055 99 12 312 4 425 -15z"/>
<path d="M15635 14582 c-460 -1048 -796 -1800 -870 -1947 -390 -774 -866
-1374 -1393 -1752 -164 -118 -256 -153 -502 -188 -544 -80 -1015 -311 -1412
-693 -495 -478 -779 -1077 -830 -1756 -35 -473 94 -982 348 -1364 l57 -85 -13
-51 c-23 -95 -90 -285 -129 -371 -132 -285 -346 -490 -631 -604 -182 -72 -378
-112 -680 -136 -201 -16 -237 -23 -320 -65 -190 -97 -215 -289 -56 -438 105
-100 254 -151 463 -159 389 -16 870 129 1233 372 200 133 324 239 709 602 124
117 231 213 237 213 5 0 39 -11 75 -25 86 -34 261 -80 384 -102 145 -25 500
-25 650 0 544 91 995 326 1396 726 320 321 531 664 668 1085 100 305 145 648
123 926 l-9 115 108 430 c59 237 185 765 279 1175 295 1282 410 1730 596 2321
313 999 715 1835 1183 2463 l80 106 -192 178 c-455 423 -791 732 -796 732 -4
0 -343 -768 -756 -1708z m-2275 -4571 c278 -56 510 -180 710 -381 309 -308
461 -744 423 -1209 -21 -244 -75 -443 -184 -670 -263 -550 -763 -940 -1342
-1048 -132 -24 -399 -24 -532 1 -290 54 -530 180 -736 385 -571 572 -571 1542
1 2261 289 363 715 611 1160 676 127 18 373 11 500 -15z"/>
</g>
</svg>
